<svg width="500" height="500" viewBox="0 0 500 500" fill="none" xmlns="http://www.w3.org/2000/svg">
<line x1="247.256" y1="236.845" x2="129.667" y2="66.6867" stroke="#6A5C7B" stroke-width="3"/>
<line x1="248.557" y1="234.494" x2="436.694" y2="242.918" stroke="#6A5C7B" stroke-width="3"/>
<line x1="249.762" y1="236.787" x2="132.173" y2="424.929" stroke="#6A5C7B" stroke-width="3"/>
<mask id="path-4-inside-1" fill="white">
<path fill-rule="evenodd" clip-rule="evenodd" d="M179.045 320.929C174.171 321.382 169.147 321.199 164.081 320.308C134.183 315.046 114.114 287.1 119.255 257.89C124.268 229.406 151.402 210.237 180.471 214.18C187.973 190.946 215.181 173.495 247.828 173.06C281.023 172.617 309.066 189.908 316.652 213.532C321.926 212.918 327.388 213.049 332.901 214.019C362.798 219.281 382.868 247.227 377.727 276.437C372.991 303.346 348.513 321.941 321.312 320.591C303.161 329.931 278.545 335.798 251.387 336.071C223.167 336.354 197.57 330.543 179.045 320.929Z"/>
</mask>
<path fill-rule="evenodd" clip-rule="evenodd" d="M179.045 320.929C174.171 321.382 169.147 321.199 164.081 320.308C134.183 315.046 114.114 287.1 119.255 257.89C124.268 229.406 151.402 210.237 180.471 214.18C187.973 190.946 215.181 173.495 247.828 173.06C281.023 172.617 309.066 189.908 316.652 213.532C321.926 212.918 327.388 213.049 332.901 214.019C362.798 219.281 382.868 247.227 377.727 276.437C372.991 303.346 348.513 321.941 321.312 320.591C303.161 329.931 278.545 335.798 251.387 336.071C223.167 336.354 197.57 330.543 179.045 320.929Z" fill="#A791C2"/>
<path d="M179.045 320.929L180.427 318.266L179.645 317.861L178.768 317.942L179.045 320.929ZM164.081 320.308L163.561 323.262L164.081 320.308ZM119.255 257.89L122.209 258.41L119.255 257.89ZM180.471 214.18L180.067 217.153L182.554 217.491L183.326 215.102L180.471 214.18ZM247.828 173.06L247.868 176.059L247.828 173.06ZM316.652 213.532L313.795 214.449L314.549 216.797L316.999 216.512L316.652 213.532ZM332.901 214.019L332.381 216.974H332.381L332.901 214.019ZM377.727 276.437L380.681 276.957V276.957L377.727 276.437ZM321.312 320.591L321.461 317.595L320.656 317.555L319.939 317.923L321.312 320.591ZM251.387 336.071L251.356 333.071L251.387 336.071ZM178.768 317.942C174.157 318.371 169.402 318.198 164.601 317.353L163.561 323.262C168.892 324.201 174.184 324.394 179.323 323.916L178.768 317.942ZM164.601 317.353C136.27 312.367 117.367 285.924 122.209 258.41L116.3 257.37C110.86 288.276 132.096 317.725 163.561 323.262L164.601 317.353ZM122.209 258.41C126.931 231.579 152.527 213.417 180.067 217.153L180.874 211.208C150.277 207.057 121.604 227.232 116.3 257.37L122.209 258.41ZM183.326 215.102C190.317 193.451 216.086 176.484 247.868 176.059L247.788 170.06C214.277 170.507 185.63 188.44 177.616 213.259L183.326 215.102ZM247.868 176.059C280.195 175.628 306.736 192.462 313.795 214.449L319.508 212.615C311.397 187.353 281.851 169.605 247.788 170.06L247.868 176.059ZM316.999 216.512C321.987 215.931 327.157 216.055 332.381 216.974L333.421 211.065C327.619 210.044 321.865 209.905 316.305 210.552L316.999 216.512ZM332.381 216.974C360.712 221.96 379.615 248.403 374.772 275.917L380.681 276.957C386.121 246.05 364.885 216.602 333.421 211.065L332.381 216.974ZM374.772 275.917C370.311 301.265 347.224 318.874 321.461 317.595L321.163 323.587C349.801 325.009 375.671 305.427 380.681 276.957L374.772 275.917ZM319.939 317.923C302.276 327.012 278.136 332.802 251.356 333.071L251.417 339.07C278.954 338.794 304.046 332.849 322.685 323.259L319.939 317.923ZM251.356 333.071C223.526 333.35 198.434 327.611 180.427 318.266L177.663 323.592C196.707 333.474 222.808 339.357 251.417 339.07L251.356 333.071Z" fill="#A791C2" mask="url(#path-4-inside-1)"/>
<mask id="path-6-outside-2" maskUnits="userSpaceOnUse" x="114.451" y="148.605" width="268" height="170" fill="black">
<rect fill="white" x="114.451" y="148.605" width="268" height="170"/>
<path fill-rule="evenodd" clip-rule="evenodd" d="M179.045 299.483C174.171 299.936 169.147 299.753 164.081 298.861C134.183 293.599 114.114 265.654 119.255 236.443C124.268 207.959 151.402 188.79 180.471 192.734C187.973 169.499 215.181 152.049 247.828 151.613C281.023 151.17 309.066 168.461 316.652 192.086C321.926 191.471 327.388 191.603 332.901 192.573C362.798 197.835 382.868 225.78 377.727 254.99C372.991 281.899 348.513 300.495 321.312 299.145C303.161 308.484 278.545 314.351 251.387 314.624C223.167 314.907 197.57 309.096 179.045 299.483Z"/>
</mask>
<path fill-rule="evenodd" clip-rule="evenodd" d="M179.045 299.483C174.171 299.936 169.147 299.753 164.081 298.861C134.183 293.599 114.114 265.654 119.255 236.443C124.268 207.959 151.402 188.79 180.471 192.734C187.973 169.499 215.181 152.049 247.828 151.613C281.023 151.17 309.066 168.461 316.652 192.086C321.926 191.471 327.388 191.603 332.901 192.573C362.798 197.835 382.868 225.78 377.727 254.99C372.991 281.899 348.513 300.495 321.312 299.145C303.161 308.484 278.545 314.351 251.387 314.624C223.167 314.907 197.57 309.096 179.045 299.483Z" fill="white"/>
<path d="M179.045 299.483L180.427 296.82L179.645 296.414L178.768 296.496L179.045 299.483ZM164.081 298.861L163.561 301.816L164.081 298.861ZM119.255 236.443L122.209 236.963L119.255 236.443ZM180.471 192.734L180.067 195.707L182.554 196.044L183.326 193.656L180.471 192.734ZM247.828 151.613L247.868 154.613L247.828 151.613ZM316.652 192.086L313.795 193.003L314.549 195.351L316.999 195.065L316.652 192.086ZM332.901 192.573L332.381 195.527H332.381L332.901 192.573ZM377.727 254.99L380.681 255.51L377.727 254.99ZM321.312 299.145L321.461 296.148L320.656 296.108L319.939 296.477L321.312 299.145ZM251.387 314.624L251.356 311.624L251.387 314.624ZM178.768 296.496C174.157 296.924 169.402 296.751 164.601 295.906L163.561 301.816C168.892 302.754 174.184 302.948 179.323 302.47L178.768 296.496ZM164.601 295.906C136.27 290.92 117.367 264.478 122.209 236.963L116.3 235.923C110.86 266.83 132.096 296.278 163.561 301.816L164.601 295.906ZM122.209 236.963C126.931 210.133 152.527 191.97 180.067 195.707L180.874 189.761C150.277 185.61 121.604 205.786 116.3 235.923L122.209 236.963ZM183.326 193.656C190.317 172.005 216.086 155.037 247.868 154.613L247.788 148.613C214.277 149.061 185.63 166.993 177.616 191.812L183.326 193.656ZM247.868 154.613C280.195 154.181 306.736 171.015 313.795 193.003L319.508 191.168C311.397 165.907 281.851 148.159 247.788 148.613L247.868 154.613ZM316.999 195.065C321.987 194.484 327.157 194.608 332.381 195.527L333.421 189.618C327.619 188.597 321.865 188.458 316.305 189.106L316.999 195.065ZM332.381 195.527C360.712 200.514 379.615 226.956 374.772 254.47L380.681 255.51C386.121 224.604 364.885 195.156 333.421 189.618L332.381 195.527ZM374.772 254.47C370.311 279.818 347.224 297.427 321.461 296.148L321.163 302.141C349.801 303.563 375.671 283.981 380.681 255.51L374.772 254.47ZM319.939 296.477C302.276 305.566 278.136 311.355 251.356 311.624L251.417 317.624C278.954 317.348 304.046 311.403 322.684 301.812L319.939 296.477ZM251.356 311.624C223.526 311.903 198.434 306.165 180.427 296.82L177.663 302.146C196.707 312.028 222.808 317.911 251.417 317.624L251.356 311.624Z" fill="#A791C2" mask="url(#path-6-outside-2)"/>
<circle cx="130.901" cy="65.834" r="12.334" fill="#6A5C7B" stroke="#6A5C7B" stroke-width="3"/>
<circle cx="436.632" cy="244.293" r="17.8676" fill="#6A5C7B" stroke="#6A5C7B" stroke-width="3"/>
<circle cx="130.209" cy="423.443" r="22.7095" fill="#6A5C7B" stroke="#6A5C7B" stroke-width="3"/>
</svg>
